<svg width="1728" height="1117" viewBox="0 0 1728 1117" preserveAspectRatio="none" fill="none"
  xmlns="http://www.w3.org/2000/svg">
  <g clip-path="url(#clip0_8_1671)">
    <rect width="1733" height="1233" transform="translate(1733 1232) rotate(-180)" fill="#0D0A2C" />
    <g filter="url(#filter0_f_8_1671)">
      <path
        d="M523.301 339.176C499.323 128.111 727.908 -71.1679 1033.86 -105.925C1339.81 -140.682 1669.86 443.091 1693.84 654.156C1717.82 865.221 1399.79 354.9 1093.84 389.657C787.891 424.414 547.279 550.241 523.301 339.176Z"
        fill="#8349FF" />
    </g>
    <g filter="url(#filter1_f_8_1671)">
      <path
        d="M1205.58 359.187C1333.41 397.068 1377.66 458.96 1476.66 534.809C1667.78 681.222 1691.94 840.052 1894.55 974.383C2307.96 1248.48 1867.04 -146.437 1296.75 -98.572C938.241 -68.4829 119.489 391.931 466.393 414.956C604.934 424.152 692.429 360.024 835.503 348.761C983.16 337.138 1075.12 320.529 1205.58 359.187Z"
        fill="url(#paint0_linear_8_1671)" />
    </g>
    <g filter="url(#filter2_f_8_1671)">
      <path
        d="M546.992 565.581C688.864 554.035 781.682 492.643 872.304 350.411C1055.89 62.2776 -9.39269 -23.8336 137.711 291.031C230.463 489.56 365.777 580.33 546.992 565.581Z"
        fill="#0011E0" />
    </g>
    <g filter="url(#filter3_f_8_1671)">
      <path
        d="M542.986 375.729C660.895 367.972 737.849 324.448 812.701 223.186C964.336 18.0466 78.3909 -47.1192 201.774 178.249C279.569 320.348 392.379 385.638 542.986 375.729Z"
        fill="#2D3A5E" />
    </g>
  </g>
  <defs>
    <filter id="filter0_f_8_1671" x="201.574" y="-427.413" width="1813.54" height="1452.9" filterUnits="userSpaceOnUse"
      color-interpolation-filters="sRGB">
      <feFlood flood-opacity="0" result="BackgroundImageFix" />
      <feBlend mode="normal" in="SourceGraphic" in2="BackgroundImageFix" result="shape" />
      <feGaussianBlur stdDeviation="160" result="effect1_foregroundBlur_8_1671" />
    </filter>
    <filter id="filter1_f_8_1671" x="132.541" y="-349.778" width="2174.32" height="1609.88" filterUnits="userSpaceOnUse"
      color-interpolation-filters="sRGB">
      <feFlood flood-opacity="0" result="BackgroundImageFix" />
      <feBlend mode="normal" in="SourceGraphic" in2="BackgroundImageFix" result="shape" />
      <feGaussianBlur stdDeviation="125" result="effect1_foregroundBlur_8_1671" />
    </filter>
    <filter id="filter2_f_8_1671" x="-196.283" y="-228.652" width="1409.93" height="1115.78"
      filterUnits="userSpaceOnUse" color-interpolation-filters="sRGB">
      <feFlood flood-opacity="0" result="BackgroundImageFix" />
      <feBlend mode="normal" in="SourceGraphic" in2="BackgroundImageFix" result="shape" />
      <feGaussianBlur stdDeviation="160" result="effect1_foregroundBlur_8_1671" />
    </filter>
    <filter id="filter3_f_8_1671" x="-130.055" y="-283.325" width="1280.28" height="980.033"
      filterUnits="userSpaceOnUse" color-interpolation-filters="sRGB">
      <feFlood flood-opacity="0" result="BackgroundImageFix" />
      <feBlend mode="normal" in="SourceGraphic" in2="BackgroundImageFix" result="shape" />
      <feGaussianBlur stdDeviation="160" result="effect1_foregroundBlur_8_1671" />
    </filter>
    <linearGradient id="paint0_linear_8_1671" x1="1603.22" y1="669.078" x2="1017.01" y2="122.248"
      gradientUnits="userSpaceOnUse">
      <stop stop-color="#FF169E" />
      <stop offset="1" stop-color="#5E1740" />
    </linearGradient>
    <clipPath id="clip0_8_1671">
      <rect width="1733" height="1233" fill="white" transform="translate(1733 1232) rotate(-180)" />
    </clipPath>
  </defs>
</svg>