<svg width="200" height="200" viewBox="0 0 200 200" fill="none" xmlns="http://www.w3.org/2000/svg">
<path d="M100 200C93.4028 200 87.3264 198.351 81.7708 195.052C76.3889 191.927 72.0486 187.674 68.75 182.292C65.625 176.736 64.0625 170.66 64.0625 164.062C64.0625 155.729 65.9722 148.785 69.7917 143.229C73.6111 137.674 79.5139 131.163 87.5 123.698C93.4028 118.316 96.3542 113.194 96.3542 108.333V103.646H91.6667C86.2847 103.646 78.9062 109.028 69.5312 119.792C60.3299 130.556 49.1319 135.937 35.9375 135.937C29.3403 135.937 23.2639 134.375 17.7083 131.25C12.3264 127.951 7.98611 123.611 4.6875 118.229C1.5625 112.674 0 106.597 0 100C0 93.4028 1.5625 87.4132 4.6875 82.0312C7.98611 76.4757 12.3264 72.1354 17.7083 69.0104C23.2639 65.7118 29.3403 64.0625 35.9375 64.0625C48.9583 64.0625 60.0694 69.3576 69.2708 79.9479C78.4722 90.5382 85.9375 95.8333 91.6667 95.8333H96.3542V91.6667C96.3542 86.8055 93.4028 81.684 87.5 76.3021L81.5104 70.8333C77.1701 66.8403 73.1771 62.066 69.5312 56.5104C65.8854 50.7812 64.0625 43.9236 64.0625 35.9375C64.0625 29.3403 65.625 23.3507 68.75 17.9688C72.0486 12.4132 76.3889 8.07292 81.7708 4.94791C87.3264 1.6493 93.4028 0 100 0C106.597 0 112.587 1.6493 117.969 4.94791C123.524 8.24652 127.865 12.5868 130.99 17.9688C134.288 23.3507 135.937 29.3403 135.937 35.9375C135.937 48.9583 130.642 60.0694 120.052 69.2708C109.462 78.4722 104.167 85.9375 104.167 91.6667V95.8333H108.333C114.236 95.8333 121.701 90.5382 130.729 79.9479C139.583 69.3576 150.694 64.0625 164.063 64.0625C170.66 64.0625 176.649 65.7118 182.031 69.0104C187.587 72.1354 191.927 76.3889 195.052 81.7708C198.351 87.1528 200 93.2292 200 100C200 106.597 198.351 112.674 195.052 118.229C191.927 123.611 187.587 127.951 182.031 131.25C176.649 134.375 170.66 135.937 164.063 135.937C155.903 135.937 148.872 133.941 142.969 129.948C137.24 125.955 130.816 120.139 123.698 112.5C118.316 106.597 113.194 103.646 108.333 103.646H104.167V108.333C104.167 114.757 109.462 122.222 120.052 130.729C130.642 139.236 135.937 150.347 135.937 164.062C135.937 170.66 134.288 176.736 130.99 182.292C127.865 187.674 123.611 191.927 118.229 195.052C112.847 198.351 106.771 200 100 200Z" fill="url(#paint0_linear_104_61)"/>
<defs>
<linearGradient id="paint0_linear_104_61" x1="100" y1="0" x2="100" y2="200" gradientUnits="userSpaceOnUse">
<stop stop-color="#DF99F7"/>
<stop offset="1" stop-color="#FFDBB0"/>
</linearGradient>
</defs>
</svg>
